<svg width="50" height="50" viewBox="0 0 50 50" fill="none" xmlns="http://www.w3.org/2000/svg">
    <path d="M8.33325 39.5833V35.4166H12.4999V20.8333C12.4999 17.9513 13.368 15.3993 15.1041 13.177C16.8402 10.9201 19.0971 9.4444 21.8749 8.74996V7.29163C21.8749 6.42357 22.1701 5.6944 22.7603 5.10412C23.3853 4.47913 24.1319 4.16663 24.9999 4.16663C25.868 4.16663 26.5971 4.47913 27.1874 5.10412C27.8124 5.6944 28.1249 6.42357 28.1249 7.29163V8.74996C30.9027 9.4444 33.1596 10.9201 34.8958 13.177C36.6319 15.3993 37.4999 17.9513 37.4999 20.8333V35.4166H41.6666V39.5833H8.33325ZM24.9999 45.8333C23.8541 45.8333 22.8645 45.434 22.0312 44.6354C21.2326 43.802 20.8333 42.8125 20.8333 41.6666H29.1666C29.1666 42.8125 28.7499 43.802 27.9166 44.6354C27.118 45.434 26.1458 45.8333 24.9999 45.8333ZM16.6666 35.4166H33.3333V20.8333C33.3333 18.5416 32.5173 16.5798 30.8853 14.9479C29.2534 13.3159 27.2916 12.5 24.9999 12.5C22.7083 12.5 20.7464 13.3159 19.1145 14.9479C17.4826 16.5798 16.6666 18.5416 16.6666 20.8333V35.4166Z"
          fill="#1D1B20"/>
</svg>
